<?xml version="1.0" standalone="no"?>
<!DOCTYPE svg PUBLIC "-//W3C//DTD SVG 20010904//EN"
 "http://www.w3.org/TR/2001/REC-SVG-20010904/DTD/svg10.dtd">
<svg version="1.0" xmlns="http://www.w3.org/2000/svg"
 width="500.000000pt" height="500.000000pt" viewBox="0 0 500.000000 500.000000"
 preserveAspectRatio="xMidYMid meet">
<metadata>
Created by potrace 1.11, written by Peter Selinger 2001-2013
</metadata>
<g transform="translate(0.000000,500.000000) scale(0.100000,-0.100000)"
fill="#000000" stroke="none">
<path d="M2487 2519 c-1581 -1577 -2487 -2488 -2487 -2500 0 -19 43 -19 2500
-19 l2500 0 0 2500 c0 2012 -2 2500 -13 2500 -7 0 -1132 -1116 -2500 -2481z
m1361 -98 c92 -63 108 -76 159 -134 17 -19 46 -43 62 -53 17 -10 31 -26 31
-36 0 -10 12 -35 28 -56 31 -43 55 -97 105 -227 76 -196 55 -320 -73 -439 -76
-70 -190 -126 -390 -191 -176 -57 -198 -67 -179 -84 23 -20 151 -100 195 -122
58 -27 350 -98 459 -111 50 -6 95 -12 100 -13 6 -1 23 -26 39 -55 32 -59 46
-153 27 -188 -10 -19 -9 -22 9 -22 17 0 14 -8 -25 -59 -37 -49 -52 -60 -89
-70 -119 -30 -268 -1 -564 110 -206 77 -300 129 -417 228 -32 28 -62 48 -66
43 -4 -4 -14 -41 -23 -83 -22 -101 -81 -202 -119 -203 -14 -1 -34 -9 -45 -19
-25 -22 -44 -22 -103 5 -31 14 -50 30 -53 45 -4 12 -15 24 -25 28 -11 3 -19
15 -19 28 0 45 -15 103 -35 131 -15 21 -17 31 -9 34 8 2 12 26 12 65 0 33 9
95 21 136 13 45 19 91 17 116 -3 26 0 45 8 53 8 8 14 34 14 63 0 27 9 78 21
112 12 34 34 126 50 205 33 167 54 250 76 303 13 33 20 39 44 39 16 0 47 -7
69 -16 40 -16 42 -16 67 7 14 13 76 92 138 174 110 147 199 241 256 271 22 11
101 36 137 43 2 1 43 -26 90 -58z"/>
<path d="M3680 1953 c0 -5 -36 -46 -80 -93 -45 -47 -94 -103 -109 -125 -32
-46 -58 -111 -48 -121 11 -11 132 25 272 82 127 50 130 52 127 80 -4 43 -52
114 -100 151 -43 32 -62 40 -62 26z"/>
<path d="M2612 4583 c-30 -43 -115 -218 -155 -318 -194 -493 -237 -591 -310
-701 -58 -87 -67 -97 -150 -163 -79 -62 -80 -62 -98 43 -13 78 -7 148 22 281
11 50 36 164 54 254 31 155 33 167 18 195 -28 53 -115 161 -142 175 -14 7 -45
29 -68 47 -23 19 -45 34 -50 34 -31 0 -171 -202 -355 -510 -77 -129 -161 -264
-186 -300 -89 -125 -262 -288 -360 -339 -23 -12 -23 -11 -17 26 37 216 73 354
159 613 52 157 102 314 110 348 l15 64 -63 59 c-35 32 -74 74 -87 94 -13 19
-28 35 -33 35 -6 0 -20 10 -32 21 -33 31 -69 18 -129 -44 -65 -67 -112 -153
-179 -324 -64 -165 -108 -333 -175 -666 l-50 -249 19 -48 c47 -120 129 -267
169 -303 51 -46 191 -117 230 -117 53 0 164 28 241 60 128 54 228 128 434 319
61 55 113 101 117 101 5 0 34 -48 65 -107 138 -260 195 -339 283 -391 32 -19
36 -20 64 -5 20 10 45 14 73 10 39 -4 50 0 105 41 199 144 353 377 533 807 37
88 106 246 152 351 46 104 84 203 84 218 0 83 -56 219 -118 288 -37 42 -147
128 -162 128 -5 0 -17 -12 -28 -27z"/>
</g>
</svg>
